<svg xmlns="http://www.w3.org/2000/svg" xmlns:xlink="http://www.w3.org/1999/xlink" version="1.1" style="width:734px;height:759px;background:#FFFFFF;" width="734px" height="759px" viewBox="0 0 734 759" zoomAndPan="magnify" preserveAspectRatio="none" contentStyleType="text/css"><?plantuml 1.2026.8?><defs/><g font-family="sans-serif" lengthAdjust="spacing"><g><title>Operator</title><rect x="32" y="79" width="8" height="600" fill="#000" fill-opacity="0"/><line x1="36" y1="79" x2="36" y2="679" style="stroke:#181818;stroke-width:2;stroke-dasharray:5,5;"/></g><g><title>WinUI client</title><rect x="185" y="79" width="8" height="600" fill="#000" fill-opacity="0"/><line x1="189" y1="79" x2="189" y2="679" style="stroke:#181818;stroke-width:2;stroke-dasharray:5,5;"/></g><g><title>workstation-api</title><rect x="381" y="79" width="8" height="600" fill="#000" fill-opacity="0"/><line x1="384" y1="79" x2="384" y2="679" style="stroke:#181818;stroke-width:2;stroke-dasharray:5,5;"/></g><g><title>users-db</title><rect x="557" y="79" width="8" height="600" fill="#000" fill-opacity="0"/><line x1="561" y1="79" x2="561" y2="679" style="stroke:#181818;stroke-width:2;stroke-dasharray:5,5;"/></g><g><title>jwt-auth</title><rect x="629" y="79" width="8" height="600" fill="#000" fill-opacity="0"/><line x1="632" y1="79" x2="632" y2="679" style="stroke:#181818;stroke-width:2;stroke-dasharray:5,5;"/></g><g><title>lancedb</title><rect x="698" y="79" width="8" height="600" fill="#000" fill-opacity="0"/><line x1="701" y1="79" x2="701" y2="679" style="stroke:#181818;stroke-width:2;stroke-dasharray:5,5;"/></g><text x="5" y="76" fill="#000" font-size="14" textLength="55">Operator</text><ellipse cx="36" cy="14" rx="8" ry="8" fill="#E2E2F0"/><path d="M36,22 L36,48 M23,30 L49,30 M36,48 L23,64 M36,48 L49,64" fill="none"/><rect x="146" y="50" width="85" height="28" fill="#E2E2F0" rx="2" ry="2"/><text x="153" y="68" fill="#000" font-size="14" textLength="71">WinUI client</text><rect x="330" y="50" width="108" height="28" fill="#E2E2F0" rx="2" ry="2"/><text x="337" y="68" fill="#000" font-size="14" textLength="94">workstation-api</text><text x="530" y="76" fill="#000" font-size="14" textLength="54">users-db</text><path d="M543,29 C543,19 561,19 561,19 C561,19 579,19 579,29 L579,55 C579,65 561,65 561,65 C561,65 543,65 543,55 L543,29" fill="#E2E2F0"/><path d="M543,29 C543,39 561,39 561,39 C561,39 579,39 579,29" fill="none"/><rect x="601" y="50" width="63" height="28" fill="#E2E2F0" rx="2" ry="2"/><text x="608" y="68" fill="#000" font-size="14" textLength="49">jwt-auth</text><text x="674" y="76" fill="#000" font-size="14" textLength="49">lancedb</text><path d="M683,29 C683,19 701,19 701,19 C701,19 719,19 719,29 L719,55 C719,65 701,65 701,65 C701,65 683,65 683,55 L683,29" fill="#E2E2F0"/><path d="M683,29 C683,39 701,39 701,39 C701,39 719,39 719,29" fill="none"/><text x="5" y="690" fill="#000" font-size="14" textLength="55">Operator</text><ellipse cx="36" cy="702" rx="8" ry="8" fill="#E2E2F0"/><path d="M36,710 L36,736 M23,718 L49,718 M36,736 L23,752 M36,736 L49,752" fill="none"/><rect x="146" y="679" width="85" height="28" fill="#E2E2F0" rx="2" ry="2"/><text x="153" y="697" fill="#000" font-size="14" textLength="71">WinUI client</text><rect x="330" y="679" width="108" height="28" fill="#E2E2F0" rx="2" ry="2"/><text x="337" y="697" fill="#000" font-size="14" textLength="94">workstation-api</text><text x="530" y="690" fill="#000" font-size="14" textLength="54">users-db</text><path d="M543,703 C543,693 561,693 561,693 C561,693 579,693 579,703 L579,729 C579,739 561,739 561,739 C561,739 543,739 543,729 L543,703" fill="#E2E2F0"/><path d="M543,703 C543,713 561,713 561,713 C561,713 579,713 579,703" fill="none"/><rect x="601" y="679" width="63" height="28" fill="#E2E2F0" rx="2" ry="2"/><text x="608" y="697" fill="#000" font-size="14" textLength="49">jwt-auth</text><text x="674" y="690" fill="#000" font-size="14" textLength="49">lancedb</text><path d="M683,703 C683,693 701,693 701,693 C701,693 719,693 719,703 L719,729 C719,739 701,739 701,739 C701,739 683,739 683,729 L683,703" fill="#E2E2F0"/><path d="M683,703 C683,713 701,713 701,713 C701,713 719,713 719,703" fill="none"/><polygon points="177,115,187,119,177,123,181,119" fill="#181818" style="stroke:#181818;stroke-width:1;stroke-linejoin:miter;stroke-miterlimit:10;"/><line x1="36" y1="119" x2="183" y2="119" style="stroke:#181818;stroke-width:1;"/><text x="43" y="101" fill="#000" font-size="13" textLength="129">provision (operator CLI)</text><text x="43" y="114" fill="#000" font-size="13" textLength="79">raggit user add</text><polygon points="372,155,382,159,372,163,376,159" fill="#181818" style="stroke:#181818;stroke-width:1;stroke-linejoin:miter;stroke-miterlimit:10;"/><line x1="189" y1="159" x2="378" y2="159" style="stroke:#181818;stroke-width:1;"/><text x="196" y="141" fill="#000" font-size="13" textLength="116">POST /api/auth/login</text><text x="196" y="154" fill="#000" font-size="13" textLength="121">username + password</text><polygon points="549,182,559,186,549,190,553,186" fill="#181818" style="stroke:#181818;stroke-width:1;stroke-linejoin:miter;stroke-miterlimit:10;"/><line x1="384" y1="186" x2="555" y2="186" style="stroke:#181818;stroke-width:1;"/><text x="391" y="181" fill="#000" font-size="13" textLength="153">lookup COLLATE NOCASE</text><line x1="384" y1="226" x2="426" y2="226" style="stroke:#181818;stroke-width:1;"/><line x1="426" y1="226" x2="426" y2="239" style="stroke:#181818;stroke-width:1;"/><line x1="385" y1="239" x2="426" y2="239" style="stroke:#181818;stroke-width:1;"/><polygon points="395,235,385,239,395,243,391,239" fill="#181818" style="stroke:#181818;stroke-width:1;stroke-linejoin:miter;stroke-miterlimit:10;"/><text x="391" y="208" fill="#000" font-size="13" textLength="82">PBKDF2 verify</text><text x="391" y="221" fill="#000" font-size="13" textLength="101">FixedTimeEquals</text><polygon points="620,262,630,266,620,270,624,266" fill="#181818" style="stroke:#181818;stroke-width:1;stroke-linejoin:miter;stroke-miterlimit:10;"/><line x1="384" y1="266" x2="626" y2="266" style="stroke:#181818;stroke-width:1;"/><text x="391" y="261" fill="#000" font-size="13" textLength="100">issue 8h (sub, role)</text><polygon points="200,289,190,293,200,297,196,293" fill="#181818" style="stroke:#181818;stroke-width:1;stroke-linejoin:miter;stroke-miterlimit:10;"/><line x1="194" y1="293" x2="383" y2="293" style="stroke:#181818;stroke-width:1;stroke-dasharray:2,2;"/><text x="206" y="288" fill="#000" font-size="13" textLength="71">Bearer token</text><polygon points="372,329,382,333,372,337,376,333" fill="#181818" style="stroke:#181818;stroke-width:1;stroke-linejoin:miter;stroke-miterlimit:10;"/><line x1="189" y1="333" x2="378" y2="333" style="stroke:#181818;stroke-width:1;"/><text x="196" y="315" fill="#000" font-size="13" textLength="98">GET /api/auth/me</text><text x="196" y="328" fill="#000" font-size="13" textLength="118">Authorization: Bearer</text><polygon points="620,369,630,373,620,377,624,373" fill="#181818" style="stroke:#181818;stroke-width:1;stroke-linejoin:miter;stroke-miterlimit:10;"/><line x1="384" y1="373" x2="626" y2="373" style="stroke:#181818;stroke-width:1;"/><text x="391" y="355" fill="#000" font-size="13" textLength="100">validate + liveness</text><text x="391" y="368" fill="#000" font-size="13" textLength="90">IsActive, lockout</text><polygon points="200,396,190,400,200,404,196,400" fill="#181818" style="stroke:#181818;stroke-width:1;stroke-linejoin:miter;stroke-miterlimit:10;"/><line x1="194" y1="400" x2="383" y2="400" style="stroke:#181818;stroke-width:1;stroke-dasharray:2,2;"/><text x="206" y="395" fill="#000" font-size="13" textLength="161">displayName/username/sub</text><polygon points="372,436,382,440,372,444,376,440" fill="#181818" style="stroke:#181818;stroke-width:1;stroke-linejoin:miter;stroke-miterlimit:10;"/><line x1="189" y1="440" x2="378" y2="440" style="stroke:#181818;stroke-width:1;"/><text x="196" y="422" fill="#000" font-size="13" textLength="171">POST /api/documents (upload)</text><text x="196" y="435" fill="#000" font-size="13" textLength="119">CreatedBy = person id</text><polygon points="689,463,699,467,689,471,693,467" fill="#181818" style="stroke:#181818;stroke-width:1;stroke-linejoin:miter;stroke-miterlimit:10;"/><line x1="384" y1="467" x2="695" y2="467" style="stroke:#181818;stroke-width:1;"/><text x="391" y="462" fill="#000" font-size="13" textLength="118">chunk 512/50 + upsert</text><polygon points="372,503,382,507,372,511,376,507" fill="#181818" style="stroke:#181818;stroke-width:1;stroke-linejoin:miter;stroke-miterlimit:10;"/><line x1="189" y1="507" x2="378" y2="507" style="stroke:#181818;stroke-width:1;"/><text x="196" y="489" fill="#000" font-size="13" textLength="129">GET /api/users (Admin)</text><text x="196" y="502" fill="#000" font-size="13" textLength="105">Bearer role=Admin</text><polygon points="549,530,559,534,549,538,553,534" fill="#181818" style="stroke:#181818;stroke-width:1;stroke-linejoin:miter;stroke-miterlimit:10;"/><line x1="384" y1="534" x2="555" y2="534" style="stroke:#181818;stroke-width:1;"/><text x="391" y="529" fill="#000" font-size="13" textLength="144">list / patch / reset-password</text><polygon points="372,557,382,561,372,565,376,561" fill="#181818" style="stroke:#181818;stroke-width:1;stroke-linejoin:miter;stroke-miterlimit:10;"/><line x1="189" y1="561" x2="378" y2="561" style="stroke:#181818;stroke-width:1;"/><text x="196" y="556" fill="#000" font-size="13" textLength="129">POST /api/auth/refresh</text><polygon points="620,584,630,588,620,592,624,588" fill="#181818" style="stroke:#181818;stroke-width:1;stroke-linejoin:miter;stroke-miterlimit:10;"/><line x1="384" y1="588" x2="626" y2="588" style="stroke:#181818;stroke-width:1;"/><text x="391" y="583" fill="#000" font-size="13" textLength="46">re-issue</text><polygon points="200,611,190,615,200,619,196,615" fill="#181818" style="stroke:#181818;stroke-width:1;stroke-linejoin:miter;stroke-miterlimit:10;"/><line x1="194" y1="615" x2="383" y2="615" style="stroke:#181818;stroke-width:1;stroke-dasharray:2,2;"/><text x="206" y="610" fill="#000" font-size="13" textLength="70">new 8h token</text><path d="M347,628 L347,664 L597,664 L597,638 L587,628 L347,628" fill="#FEFFDD"/><path d="M587,628 L587,638 L597,638 L587,628" fill="#FEFFDD"/><text x="384" y="643" fill="#000" font-size="13" textLength="125">Expiry -> 401 -> re-login</text><text x="384" y="656" fill="#000" font-size="13" textLength="168">404 not 403 for non-owned rows</text></g></svg>